<svg width="17" height="21" viewBox="0 0 17 21" fill="none" xmlns="http://www.w3.org/2000/svg">
<g clip-path="url(#clip0_12_6166)">
<g clip-path="url(#clip1_12_6166)">
<g clip-path="url(#clip2_12_6166)">
<path d="M8.04492 10.2339C10.806 10.2339 13.0449 7.99499 13.0449 5.23389C13.0449 2.47279 10.806 0.233887 8.04492 0.233887C5.28382 0.233887 3.04492 2.47279 3.04492 5.23389C3.0474 7.99375 5.28506 10.2314 8.04492 10.2339ZM8.04492 1.90097C9.88566 1.90097 11.3778 3.39315 11.3778 5.23389C11.3778 7.07462 9.88566 8.56681 8.04492 8.56681C6.20419 8.56681 4.712 7.07462 4.712 5.23389C4.712 3.39315 6.20419 1.90097 8.04492 1.90097Z" fill="#212529"/>
<path d="M8.04493 11.9009C3.90576 11.9046 0.548033 15.2611 0.544312 19.4015C0.544312 19.8617 0.917668 20.235 1.37785 20.235C1.83803 20.235 2.21139 19.8617 2.21139 19.4015C2.21139 16.1802 4.82365 13.568 8.04493 13.568C11.2662 13.568 13.8785 16.1802 13.8785 19.4015C13.8785 19.8617 14.2518 20.235 14.712 20.235C15.1722 20.235 15.5456 19.8617 15.5456 19.4015C15.5418 15.2623 12.1853 11.9046 8.04493 11.9009Z" fill="#212529"/>
</g>
</g>
</g>
<defs>
<clipPath id="clip0_12_6166">
<rect width="16" height="20" fill="white" transform="translate(0.0443115 0.233887)"/>
</clipPath>
<clipPath id="clip1_12_6166">
<rect width="16" height="20" fill="white" transform="translate(0.0443115 0.233887)"/>
</clipPath>
<clipPath id="clip2_12_6166">
<rect width="15.0001" height="20" fill="white" transform="translate(0.544312 0.233887)"/>
</clipPath>
</defs>
</svg>
