<svg width="66" height="21" viewBox="0 0 66 21" fill="none" xmlns="http://www.w3.org/2000/svg">
<g clip-path="url(#clip0_12_6139)">
<g clip-path="url(#clip1_12_6139)">
<g clip-path="url(#clip2_12_6139)">
<path d="M41.7117 3.63145C41.2381 3.06248 40.5362 2.73388 39.7959 2.73388C39.7949 2.73388 39.7939 2.73388 39.7928 2.73388H26.3192L26.2837 2.4418C26.1357 1.18419 25.0687 0.234901 23.802 0.233887H23.6164C23.1559 0.233887 22.7827 0.607112 22.7827 1.06756C22.7827 1.528 23.1559 1.90123 23.6164 1.90123H23.801C24.2239 1.90123 24.5789 2.21766 24.6286 2.63754L25.7756 12.387C26.0221 14.4854 27.801 16.0675 29.9135 16.0675H38.6164C39.0768 16.0675 39.45 15.6943 39.45 15.2339C39.45 14.7734 39.0768 14.4002 38.6164 14.4002H29.9135C28.8567 14.3972 27.9156 13.7298 27.5636 12.7339H37.4967C39.5129 12.7339 41.2401 11.2907 41.5971 9.3069L42.2513 5.6781C42.2776 5.53104 42.2918 5.38195 42.2918 5.23287C42.2918 4.64768 42.0859 4.08074 41.7097 3.63145H41.7117ZM40.6174 5.38195L39.9622 9.01075C39.7482 10.2014 38.7117 11.0675 37.5018 11.0675C37.5008 11.0675 37.4997 11.0675 37.4977 11.0675H27.2989L26.515 4.40123H39.7918C39.7939 4.40123 39.7949 4.40123 39.7969 4.40123C40.2573 4.40123 40.6306 4.77445 40.6306 5.2349C40.6306 5.28459 40.6255 5.33429 40.6174 5.38297V5.38195Z" fill="#212529"/>
<path d="M28.6184 20.2328C29.5386 20.2328 30.2847 19.4868 30.2847 18.5665C30.2847 17.6462 29.5386 16.9001 28.6184 16.9001C27.6981 16.9001 26.952 17.6462 26.952 18.5665C26.952 19.4868 27.6981 20.2328 28.6184 20.2328Z" fill="#212529"/>
<path d="M36.9511 20.2328C37.8714 20.2328 38.6174 19.4868 38.6174 18.5665C38.6174 17.6462 37.8714 16.9001 36.9511 16.9001C36.0308 16.9001 35.2848 17.6462 35.2848 18.5665C35.2848 19.4868 36.0308 20.2328 36.9511 20.2328Z" fill="#212529"/>
</g>
</g>
</g>
<defs>
<clipPath id="clip0_12_6139">
<rect width="64.97" height="20" fill="white" transform="translate(0.0543213 0.233887)"/>
</clipPath>
<clipPath id="clip1_12_6139">
<rect width="64.97" height="20" fill="white" transform="translate(0.0543213 0.233887)"/>
</clipPath>
<clipPath id="clip2_12_6139">
<rect width="19.5091" height="20" fill="white" transform="translate(22.7848 0.233887)"/>
</clipPath>
</defs>
</svg>
