<svg width="82" height="21" viewBox="0 0 82 21" fill="none" xmlns="http://www.w3.org/2000/svg">
<g clip-path="url(#clip0_12_6116)">
<g clip-path="url(#clip1_12_6116)">
<g clip-path="url(#clip2_12_6116)">
<path fill-rule="evenodd" clip-rule="evenodd" d="M39.5188 1.68941C39.5188 2.33631 39.7261 2.76758 40.21 3.12697L40.6938 3.3426C38.8277 3.3426 37.1689 3.63011 35.7175 4.42077C33.7823 5.35518 33.7823 4.49264 32.6073 4.49264C31.9853 4.49264 31.3632 5.71457 32.4 6.28959C32.6764 6.43334 33.2293 6.64898 33.5749 6.64898C32.6073 8.58969 31.6397 10.6023 30.6721 12.543C30.4647 12.543 30.1883 12.4711 30.05 12.6149C29.6353 12.9742 30.3956 13.9806 30.603 14.268L31.3632 14.843C33.0911 15.9212 36.2704 15.9931 37.7909 14.4837C38.2056 14.1242 38.7585 13.4773 38.7585 12.7586C38.7585 12.4711 38.2056 12.543 38.0674 12.543C37.9983 12.3992 37.7909 11.9679 37.7218 11.8242C36.8924 10.2429 35.8557 8.44593 35.2337 6.86461C35.0954 6.5771 35.1646 6.72085 35.7175 6.5771C36.9615 6.28959 38.3438 5.49893 39.5188 5.49893V17.1431C38.6894 17.1431 38.0674 17.8619 38.0674 18.7244H36.3395C35.7866 18.7244 35.0954 19.3713 35.0954 20.2339H41.0393H46.9832C46.9832 19.3713 46.2921 18.7244 45.7391 18.7244H44.0113C44.0113 17.8619 43.3892 17.1431 42.5599 17.1431V5.49893C43.7348 5.49893 45.1171 6.28959 46.3612 6.5771C46.9141 6.72085 46.9832 6.5771 46.845 6.86461C46.1539 8.44593 45.1862 10.2429 44.3569 11.8242C44.2878 11.9679 44.0804 12.3992 44.0113 12.543C43.873 12.543 43.251 12.4711 43.251 12.7586C43.251 13.4773 43.873 14.1242 44.2878 14.4837C45.7391 15.9931 48.9876 15.9212 50.7154 14.843L51.4757 14.268C51.683 13.9806 52.4433 12.9742 52.0287 12.6149C51.8904 12.4711 51.6139 12.543 51.4066 12.543C50.439 10.6023 49.4713 8.58969 48.5038 6.64898C48.8493 6.64898 49.4022 6.43334 49.6096 6.28959C50.7154 5.71457 50.0243 4.49264 49.4022 4.49264C48.2964 4.49264 48.2964 5.35518 46.3612 4.42077C44.9098 3.63011 43.251 3.3426 41.3849 3.3426L41.7996 3.12697C42.3526 2.76758 42.5599 2.33631 42.5599 1.68941C42.5599 -0.251288 39.5188 -0.251288 39.5188 1.68941ZM47.7434 6.93649L46.3612 9.73973L44.9789 12.543H47.7434H50.439L49.1258 9.73973L47.7434 6.93649ZM34.3352 6.93649L35.7175 9.73973L37.0998 12.543H34.3352H31.5706L32.9529 9.73973L34.3352 6.93649Z" fill="#1E293B"/>
</g>
</g>
</g>
<defs>
<clipPath id="clip0_12_6116">
<rect width="80.97" height="20" fill="white" transform="translate(0.554321 0.233887)"/>
</clipPath>
<clipPath id="clip1_12_6116">
<rect width="80.97" height="20" fill="white" transform="translate(0.554321 0.233887)"/>
</clipPath>
<clipPath id="clip2_12_6116">
<rect width="23.3333" height="20" fill="white" transform="translate(29.3727 0.233887)"/>
</clipPath>
</defs>
</svg>
