<svg width="82" height="21" viewBox="0 0 82 21" fill="none" xmlns="http://www.w3.org/2000/svg">
<g clip-path="url(#clip0_12_6151)">
<g clip-path="url(#clip1_12_6151)">
<g clip-path="url(#clip2_12_6151)">
<path fill-rule="evenodd" clip-rule="evenodd" d="M46.2921 2.14632C47.5655 2.14632 49.0118 3.04607 49.705 4.06475C50.3464 5.00775 50.5122 5.76695 50.5122 6.9454C50.5122 8.95033 48.8052 11.6015 47.5451 13.0431C47.3324 13.2869 47.1511 13.5272 46.924 13.7542L46.0146 14.7549C45.4188 15.3447 44.4686 16.3009 43.8415 16.8031C43.7635 16.8655 43.7334 16.9076 43.6601 16.976C42.9178 17.6704 42.1538 18.3203 41.0053 18.3203C40.0551 18.3203 39.5013 17.8746 38.9932 17.4445C38.9115 17.3749 38.9019 17.3821 38.8178 17.3088C38.7493 17.2475 38.7277 17.2163 38.6568 17.1586L38.1055 16.6889C37.9601 16.5484 37.9145 16.4991 37.7559 16.373C37.5168 16.182 37.3511 15.9598 37.0892 15.7507C36.6015 15.3615 35.6717 14.2864 35.1744 13.7554C34.4704 13.0022 33.4589 11.6856 32.9328 10.7979C32.1099 9.40922 31.5862 8.37372 31.5862 6.50213C31.5862 5.39696 32.1327 4.24134 32.8631 3.51457C34.4332 1.95291 36.4705 1.68142 38.2893 3.04247C39.2238 3.74281 39.9386 4.90684 40.0671 6.10812C40.12 6.60905 39.9879 6.96583 40.1969 7.35624C40.6858 8.27041 42.0276 7.90522 42.0276 6.85771C42.0276 5.69848 42.1862 4.91045 42.9406 3.90498L43.4752 3.32837C43.8836 3.01364 43.8439 2.94877 44.501 2.62082C44.9671 2.38897 45.6218 2.14752 46.2933 2.14752L46.2921 2.14632ZM29.6749 6.2787V7.16764C29.6749 8.77735 30.5795 10.6429 31.2041 11.682C31.4 12.0088 31.5922 12.2875 31.7988 12.5974L33.2631 14.5098C34.0716 15.4168 34.4139 15.7964 35.3065 16.6877C35.972 17.3532 37.8304 19.0675 38.5247 19.5119C40.1909 20.5799 42.4409 20.4525 43.9881 19.2152L46.7702 16.7094C48.5505 14.9291 50.2828 13.0106 51.418 10.7378L51.8745 9.68431C52.3982 8.21275 52.4246 7.90522 52.4246 6.36879C52.4246 4.81795 51.6426 3.20944 50.5699 2.13671C48.0712 -0.361942 44.5287 -0.434018 41.9279 2.13671C41.7333 2.32891 41.1555 3.04247 41.0954 3.30314H41.0065C40.8696 2.71452 39.6647 1.61055 39.0869 1.22374C37.3403 0.0549001 35.2068 -0.0868502 33.3196 0.859753C31.9417 1.55049 31.0059 2.47787 30.2984 3.88096C30.0185 4.43474 29.6761 5.45462 29.6761 6.2799L29.6749 6.2787Z" fill="#212529"/>
</g>
</g>
</g>
<defs>
<clipPath id="clip0_12_6151">
<rect width="80.63" height="20" fill="white" transform="translate(0.734253 0.233887)"/>
</clipPath>
<clipPath id="clip1_12_6151">
<rect width="80.63" height="20" fill="white" transform="translate(0.734253 0.233887)"/>
</clipPath>
<clipPath id="clip2_12_6151">
<rect width="22.7488" height="20" fill="white" transform="translate(29.6748 0.233887)"/>
</clipPath>
</defs>
</svg>
