<svg width="87" height="21" viewBox="0 0 87 21" fill="none" xmlns="http://www.w3.org/2000/svg">
<g clip-path="url(#clip0_12_6094)">
<g clip-path="url(#clip1_12_6094)">
<g clip-path="url(#clip2_12_6094)">
<path fill-rule="evenodd" clip-rule="evenodd" d="M21.9351 19.8977L25.1387 18.439L17.571 1.98193L15.6159 6.15102L21.9351 19.8977Z" fill="#006BFF"/>
<path fill-rule="evenodd" clip-rule="evenodd" d="M6.00488 15.8108C7.4362 14.8089 9.09591 14.0811 10.9353 13.606L16.6849 0.986084H12.8448L6.00488 15.8108Z" fill="#006BFF"/>
<path fill-rule="evenodd" clip-rule="evenodd" d="M4.59479 18.5823L7.88985 20.105C9.25417 18.8107 11.0479 18.0524 12.9117 17.7692C15.3662 17.4068 18.0035 17.824 20.0926 18.8747L18.1161 14.6051C15.5245 14.0143 13.274 14.1513 11.4346 14.5929C7.7315 15.4913 5.82206 17.352 4.59479 18.5823Z" fill="#006BFF"/>
<path fill-rule="evenodd" clip-rule="evenodd" d="M12.6619 12.5219C12.6619 12.8478 12.936 13.1067 13.1857 13.1067C13.3897 13.1067 13.5724 13.064 13.7765 13.064C14.413 13.064 14.7754 12.994 15.5275 13.0976L16.4381 13.2102C16.7548 13.2102 17.0289 13.0031 17.1659 12.7503C17.37 12.2722 17.0533 11.8672 16.8035 11.3099L15.6889 8.87056C15.622 8.7518 15.622 8.71225 15.5519 8.6117C15.2321 8.18233 14.553 8.17929 14.279 8.84625L12.7563 12.1992C12.7106 12.2905 12.6649 12.394 12.6649 12.525L12.6619 12.5219Z" fill="#006BFF"/>
<path fill-rule="evenodd" clip-rule="evenodd" d="M50.1592 10.9657C50.1592 10.5577 50.2049 10.241 50.3389 9.86942C50.3846 9.70806 50.4516 9.56796 50.543 9.43396C51.1734 8.37724 52.5681 7.99047 53.6949 8.52032C54.6176 8.96499 55.1597 9.89379 55.1597 10.9414C55.1597 12.0256 54.6633 12.7991 53.7862 13.3137C53.1346 13.6853 52.1661 13.667 51.49 13.3351C51.3317 13.2589 51.2434 13.2071 51.1063 13.0975L50.948 12.9574C50.677 12.7108 50.4516 12.3666 50.3176 12.0225C50.2263 11.718 50.1592 11.2916 50.1592 10.9597V10.9657ZM52.1174 15.6526C53.1985 15.6526 54.0299 15.4759 54.8856 14.9004L55.1567 14.7024V15.3846H57.5199V6.51042H55.1567V7.21388C54.9769 7.08598 54.9526 7.03726 54.6389 6.83932C54.0299 6.47997 53.1985 6.24243 52.4554 6.24243H52.0504C51.2159 6.24243 50.2049 6.65965 49.6202 7.1652C49.5745 7.21388 49.5288 7.24131 49.4862 7.29006L49.1939 7.558C49.0355 7.71333 48.6975 8.15488 48.5848 8.34068C48.1584 9.04414 47.8874 9.85418 47.8874 10.6978C47.8874 10.8257 47.8661 10.8531 47.8661 10.9657L47.8874 11.4926C47.9788 12.1322 47.9788 12.2326 48.2011 12.8448C48.3808 13.2954 48.7645 13.9076 49.0781 14.2152L49.2791 14.4192C49.7085 14.8212 49.7755 14.8912 50.3146 15.1927C50.3602 15.214 50.3602 15.2201 50.4059 15.2353C50.6526 15.3541 50.8566 15.4272 51.1276 15.5094C51.3743 15.5886 51.7794 15.6556 52.1174 15.6556V15.6526Z" fill="#13306A"/>
<path fill-rule="evenodd" clip-rule="evenodd" d="M33.5865 13.5848C33.0901 13.5848 32.7521 13.5848 32.3044 13.3533C32.0334 13.2132 32.012 13.1828 31.7867 13.0031C31.674 12.9056 31.5857 12.8204 31.4943 12.7016C31.4487 12.6468 31.403 12.5889 31.3816 12.531C30.797 11.6601 30.8183 10.2014 31.403 9.3091C31.741 8.81575 32.3501 8.41679 32.9561 8.32545C33.5195 8.24019 34.0129 8.29193 34.5336 8.55079C35.3437 8.9528 35.9528 9.83292 35.9528 10.9018C35.9528 11.7332 35.7061 12.3301 35.2553 12.7808C34.826 13.2163 34.2656 13.5817 33.5895 13.5817L33.5865 13.5848ZM28.6774 10.6978C28.6774 11.8154 28.7444 12.4093 29.2408 13.3503C29.5331 13.9045 29.8925 14.2669 30.3432 14.675C30.9949 15.2506 32.009 15.6526 32.8861 15.6526C33.6505 15.6526 34.1012 15.6038 34.7559 15.3693C34.9813 15.2932 35.2066 15.1866 35.3863 15.074C35.7244 14.8851 35.703 14.876 35.9497 14.7024V15.3846H38.3129V6.51042H35.9497V7.19256L35.4107 6.82714C34.5093 6.33988 33.9245 6.24243 32.8434 6.24243C32.3257 6.24243 31.5827 6.44037 31.1319 6.69314C30.7269 6.92459 30.6812 6.97636 30.3432 7.23521L29.6671 7.92344C29.4204 8.25238 29.2408 8.53556 29.058 8.92842C28.854 9.37912 28.6743 10.0552 28.6743 10.7009L28.6774 10.6978Z" fill="#13306A"/>
<path fill-rule="evenodd" clip-rule="evenodd" d="M75.058 18.4147H77.671L82.7356 6.67489C82.7813 6.61703 82.8026 6.54699 82.827 6.48608H80.1926C80.1926 6.56221 80.0799 6.76625 80.0586 6.84543C79.9915 6.9642 79.9458 7.08297 79.9001 7.18955L78.3682 10.7069C78.2768 10.9475 78.189 11.1638 78.0763 11.4104C78.0306 11.5292 77.9849 11.6419 77.9178 11.7607C77.8721 11.852 77.8051 12.0286 77.7838 12.12L77.3115 11.0632C77.2445 10.9445 77.1988 10.8379 77.1531 10.713C77.0617 10.4663 76.9739 10.2562 76.8825 10.0096C76.4986 9.09293 76.0934 8.13664 75.7131 7.20783L75.4206 6.48913H72.8076C72.8076 6.56526 73.392 7.90215 73.4377 7.99356C73.6419 8.49294 73.8429 8.97715 74.0684 9.47964C74.8326 11.2612 75.6004 13.0976 76.3645 14.8699C76.4986 15.1501 76.4986 15.0405 76.3188 15.4242L75.2165 18.0371C75.1494 18.1498 75.0824 18.3051 75.058 18.4178V18.4147Z" fill="#13306A"/>
<path fill-rule="evenodd" clip-rule="evenodd" d="M58.7137 15.3816H61.5063L63.4432 12.5737C63.4645 12.659 63.9396 13.3259 64.0279 13.4478C64.4572 14.0811 64.9293 14.742 65.3556 15.3816H68.1697L65.1758 11.048C65.2215 11.0115 65.3099 10.8562 65.3556 10.78L67.7858 7.05859C67.9198 6.86674 68.0326 6.67792 68.1697 6.48302H65.3556L65.1088 6.84846C65.0417 6.97637 64.9506 7.09515 64.8836 7.22306L63.5558 9.27257C63.5101 9.33649 63.4645 9.41876 63.4218 9.45526L62.9498 8.7092C62.9041 8.65131 62.8828 8.60256 62.8371 8.53254L62.1154 7.41489C62.0697 7.34487 62.024 7.29612 61.9814 7.22611C61.9144 7.0982 61.8474 6.99464 61.7561 6.86064C61.6646 6.72665 61.5977 6.62006 61.5094 6.47998H58.7168C58.8507 6.73883 60.3156 8.95892 60.541 9.27562L61.6433 10.9627C61.7103 11.0754 61.689 11.0663 61.552 11.246L61.1682 11.7941C60.8302 12.3301 60.4039 12.9057 60.0415 13.4417C59.7948 13.8071 58.802 15.1927 58.7137 15.3755V15.3816Z" fill="#13306A"/>
<path fill-rule="evenodd" clip-rule="evenodd" d="M39.5097 9.10806C39.5097 9.75674 39.7137 10.381 40.1615 10.8104C40.3411 10.9779 40.5908 11.1637 40.7919 11.2764C40.9258 11.3464 41.0172 11.3952 41.1755 11.4591C42.1227 11.8184 43.7885 11.9921 44.3062 12.2326C45.2746 12.6894 44.7355 13.7522 43.5631 13.7522C42.9114 13.7522 42.3937 13.7188 41.943 13.2954L41.9216 13.2741C41.9216 13.2741 41.9216 13.268 41.9216 13.2619C41.7633 13.0945 41.608 12.8051 41.608 12.5524C41.4953 12.5524 39.2905 13.0153 39.2204 13.0305C39.2417 13.2011 39.3118 13.5177 39.3544 13.6639C39.5798 14.2334 39.9392 14.6628 40.4568 14.9795C41.0872 15.351 42.0343 15.6495 43.0241 15.6495C43.8585 15.6495 44.5315 15.6069 45.2746 15.3114C45.8136 15.0922 46.2217 14.8121 46.5567 14.3948C46.7364 14.1969 46.849 13.9533 46.9404 13.6853C47.0531 13.3959 47.0988 13.1006 47.1201 12.7351L47.0744 12.2479C47.0531 12.0864 47.0074 11.9403 46.9617 11.8063C46.849 11.5383 46.715 11.3129 46.5323 11.115C45.902 10.3963 45.1801 10.2714 44.3031 10.0613C43.9894 9.98514 42.7713 9.74455 42.5033 9.6593C42.2566 9.57405 41.9643 9.4431 41.8942 9.15986C41.7146 8.54774 42.2536 8.09705 42.9754 8.09705C43.5601 8.09705 44.2148 8.23105 44.5529 8.77918C44.6442 8.90709 44.7325 9.1172 44.7325 9.31519C44.8909 9.31519 45.1589 9.23902 45.2959 9.21166L46.983 8.87967C46.983 8.71831 46.8704 8.41374 46.8247 8.28279C46.7333 8.09096 46.6663 7.95086 46.5536 7.77725C45.8776 6.78449 44.5498 6.23633 43.3804 6.23633C42.683 6.23633 42.2323 6.23633 41.5806 6.45559C40.4781 6.82104 39.5097 7.75598 39.5097 9.10203V9.10806Z" fill="#13306A"/>
<path fill-rule="evenodd" clip-rule="evenodd" d="M69.4762 15.3815H71.8394V6.50732H69.4762V15.3815Z" fill="#13306A"/>
<path fill-rule="evenodd" clip-rule="evenodd" d="M70.6456 5.49929C71.0959 5.49929 71.4341 5.32875 71.6809 5.11253C71.7936 5.00899 71.9064 4.85368 71.9734 4.71054C72.1525 4.3512 72.1312 3.86699 71.9734 3.50154C71.8393 3.23355 71.5224 2.91074 71.2513 2.79807C71.1599 2.76152 71.0928 2.7402 70.9801 2.71279C70.4841 2.58794 69.9448 2.77066 69.6279 3.07824C69.3573 3.36145 69.2233 3.65381 69.2019 4.0832C69.1806 4.57046 69.4061 4.99681 69.8107 5.25871C70.0362 5.42011 70.3287 5.49929 70.6425 5.49929H70.6456Z" fill="#13306A"/>
</g>
</g>
</g>
<defs>
<clipPath id="clip0_12_6094">
<rect width="86.27" height="19.5" fill="white" transform="translate(0.574341 0.983887)"/>
</clipPath>
<clipPath id="clip1_12_6094">
<rect width="86.27" height="19.5" fill="white" transform="translate(0.574341 0.983887)"/>
</clipPath>
<clipPath id="clip2_12_6094">
<rect width="79.2188" height="19.5" fill="white" transform="translate(4.09998 0.983887)"/>
</clipPath>
</defs>
</svg>
