<svg width="72" height="21" viewBox="0 0 72 21" fill="none" xmlns="http://www.w3.org/2000/svg">
<g clip-path="url(#clip0_12_6122)">
<g clip-path="url(#clip1_12_6122)">
<g clip-path="url(#clip2_12_6122)">
<path d="M28.808 15.7887C29.7284 15.7887 30.4745 15.0426 30.4745 14.1222C30.4745 13.2019 29.7284 12.4558 28.808 12.4558C27.8877 12.4558 27.1416 13.2019 27.1416 14.1222C27.1416 15.0426 27.8877 15.7887 28.808 15.7887Z" fill="#212529"/>
<path d="M43.8073 0.233887H28.2526C25.1858 0.236616 22.7005 2.72331 22.6978 5.78868V14.6777C22.7005 17.7445 25.1858 20.2298 28.2526 20.2339H43.8073C46.8741 20.2298 49.3594 17.7445 49.3621 14.6791V5.79005C49.3594 2.72331 46.8741 0.237981 43.8073 0.235252V0.233887ZM28.2526 2.45581H43.8073C45.6485 2.45581 47.1402 3.94891 47.1402 5.78868H24.9183C24.9183 3.94755 26.4114 2.45581 28.2512 2.45581H28.2526ZM43.8073 18.0106H28.2526C26.4114 18.0106 24.9197 16.5175 24.9197 14.6777V8.0106H47.1416V14.6777C47.1416 16.5189 45.6485 18.0106 43.8087 18.0106H43.8073Z" fill="#212529"/>
</g>
</g>
</g>
<defs>
<clipPath id="clip0_12_6122">
<rect width="71.23" height="20" fill="white" transform="translate(0.414307 0.233887)"/>
</clipPath>
<clipPath id="clip1_12_6122">
<rect width="71.23" height="20" fill="white" transform="translate(0.414307 0.233887)"/>
</clipPath>
<clipPath id="clip2_12_6122">
<rect width="26.6665" height="20" fill="white" transform="translate(22.696 0.233887)"/>
</clipPath>
</defs>
</svg>
