<svg width="86" height="21" viewBox="0 0 86 21" fill="none" xmlns="http://www.w3.org/2000/svg">
<g clip-path="url(#clip0_12_6131)">
<g clip-path="url(#clip1_12_6131)">
<g clip-path="url(#clip2_12_6131)">
<path fill-rule="evenodd" clip-rule="evenodd" d="M32.8165 6.86144L33.0004 7.22935C33.0267 7.28191 33.0611 7.33043 33.0894 7.38299C33.3309 7.83278 33.5988 8.2755 33.8717 8.70608C34.1476 9.14172 34.4367 9.57837 34.745 9.99076C34.8835 10.1757 34.9916 10.3455 35.1887 10.4759C35.3697 10.5962 35.6001 10.6761 35.8184 10.6761C36.4299 10.6761 36.6503 10.4426 36.9929 9.97964C37.0708 9.87453 37.1415 9.76435 37.2173 9.65721C37.2921 9.55209 37.3619 9.44394 37.4377 9.33983C37.7318 8.93653 38.0037 8.48472 38.2625 8.05717L38.6506 7.36379C38.9104 6.89985 39.1155 6.42984 39.2854 5.92446C39.6139 4.94604 39.2702 3.72807 38.6172 2.95685C38.3039 2.5859 37.9522 2.28166 37.5195 2.05626C36.9464 1.75809 36.4198 1.65398 35.7719 1.65398C35.4768 1.65398 35.1897 1.70755 34.9057 1.78234C34.0061 2.01785 33.1369 2.71326 32.7245 3.54815C32.1049 4.80049 32.2272 5.63235 32.8175 6.86346L32.8165 6.86144ZM34.8916 5.2614V5.09967C34.8916 4.62967 35.3221 4.19605 35.9104 4.19605C36.3754 4.19605 36.8373 4.63876 36.8373 5.09967C36.8373 5.41402 36.7776 5.68491 36.5421 5.89312C35.8235 6.52788 34.8916 5.92345 34.8916 5.2614ZM49.5901 18.4761C48.919 18.4761 48.2882 17.9273 48.2882 17.2551C48.2882 16.8781 48.3105 16.9893 48.3287 16.7669H50.7697C50.9708 17.1864 50.7747 17.8262 50.4735 18.0981C50.2602 18.2912 49.8751 18.4751 49.5891 18.4751L49.5901 18.4761ZM38.7254 17.2147L38.8073 16.7669H41.2483C41.2907 17.2814 41.3867 17.9708 40.5498 18.3478C39.6209 18.7662 38.7254 18.0294 38.7254 17.2147ZM51.8684 14.9769H49.1423V11.5585H53.4553V13.2677C53.4553 13.7639 53.243 14.1733 52.9984 14.4381C52.7649 14.6918 52.3353 14.9769 51.8684 14.9769ZM36.1217 13.2677V12.0881C36.5603 12.0467 36.9879 11.8971 37.3558 11.6413C37.8683 11.2856 38.1725 10.7781 38.5374 10.2515C38.9953 9.5905 39.2833 9.11241 39.6765 8.44834C39.726 8.36444 39.7675 8.29571 39.8099 8.21182L40.188 7.478C40.4538 6.90389 40.844 6.00027 40.844 5.19266C40.844 4.42954 40.6044 3.50267 40.2547 2.85173H44.6657C46.2435 2.85173 47.3917 4.00097 47.3917 5.57776V14.9769H37.7075C36.8939 14.9769 36.1206 14.1895 36.1206 13.2677H36.1217ZM34.372 11.6403V13.4314C34.372 13.8246 34.5085 14.3502 34.6429 14.6261C35.1321 15.6339 35.8862 16.3828 37.0172 16.6467C36.9555 17.3845 36.9101 17.7615 37.2739 18.5459C37.6843 19.4293 38.7163 20.1712 39.7442 20.2288C40.3497 20.2632 40.8409 20.1793 41.3028 19.9569C41.604 19.8124 41.7395 19.7295 41.971 19.5273C42.2014 19.3262 42.3187 19.2322 42.5178 18.935C42.8352 18.46 43.0788 17.809 43.0788 17.1763C43.0788 17.0034 43.0383 16.9853 43.0383 16.769H46.5376C46.5376 17.3198 46.4284 17.3956 46.6852 18.1678C47.2188 19.776 49.0322 20.7028 50.7939 19.966C51.1032 19.8366 51.4368 19.6122 51.6763 19.3838C52.0857 18.9936 52.6012 18.1557 52.6012 17.3784C52.6012 17.0237 52.6295 16.9428 52.5607 16.6456C54.0223 16.305 55.2059 14.8748 55.2059 13.4314V8.75156C55.2059 7.97631 54.9209 7.25766 54.6348 6.75935C54.0021 5.65863 52.9024 4.85709 51.5914 4.63472C50.894 4.51646 49.8883 4.55993 49.0615 4.55993L48.8351 3.85037C48.1973 2.25639 46.6457 1.10109 44.8294 1.10109H38.6799C38.4838 0.969689 38.2655 0.845365 38.0189 0.721041C37.4255 0.423876 36.7504 0.261143 36.0681 0.234863H35.6618C34.9795 0.262154 34.3033 0.423876 33.711 0.721041C33.3997 0.87771 32.8811 1.17589 32.6163 1.43262C32.5041 1.54077 32.4 1.62163 32.2919 1.73383C32.2312 1.79751 32.2171 1.83389 32.1534 1.89656C31.9482 2.10175 31.7966 2.34332 31.6349 2.58287C31.1972 3.23481 30.8849 4.31229 30.8849 5.19165C30.8849 6.64715 32.1888 8.74651 32.8771 9.7785C33.1146 10.1353 33.5341 10.761 33.7898 11.0895C33.9657 11.3149 34.1456 11.4877 34.373 11.6403H34.372ZM49.1423 6.351H51.0547C51.4014 6.351 51.7754 6.48543 52.019 6.60773C52.866 7.03226 53.4553 7.89747 53.4553 8.87387V9.76941H49.1423V6.351ZM35.8872 7.16163C36.4027 7.16163 36.9222 6.92511 37.2598 6.58853C37.8278 6.02351 38.0007 5.17851 37.6974 4.42448C37.6085 4.20414 37.4741 3.98581 37.3174 3.83116C36.8444 3.36419 36.4653 3.20045 35.7709 3.20045C35.3575 3.20045 34.9936 3.36318 34.6914 3.58049C34.5711 3.66742 34.5226 3.71998 34.4205 3.82005C34.2588 3.97975 34.1254 4.18999 34.0354 4.40831C33.9485 4.62158 33.8484 5.0087 33.8727 5.23512C33.9081 5.55957 33.9546 5.75465 34.0648 6.01745C34.2336 6.42175 34.6561 6.821 35.0614 6.9898C35.305 7.09088 35.5506 7.16163 35.8862 7.16163H35.8872Z" fill="#212529"/>
</g>
</g>
</g>
<defs>
<clipPath id="clip0_12_6131">
<rect width="85" height="20" fill="white" transform="translate(0.544312 0.233887)"/>
</clipPath>
<clipPath id="clip1_12_6131">
<rect width="85" height="20" fill="white" transform="translate(0.544312 0.233887)"/>
</clipPath>
<clipPath id="clip2_12_6131">
<rect width="24.3221" height="20" fill="white" transform="translate(30.8833 0.233887)"/>
</clipPath>
</defs>
</svg>
